<svg xmlns="http://www.w3.org/2000/svg"
     viewBox="-24 -24 48 48"
     width="300" height="300"
     preserveAspectRatio="xMidYMid meet"
     style="display: block;">
  <!-- white background that matches the viewBox -->
  <rect x="-24" y="-24" width="48" height="48" fill="#ffffff"/>

  <!-- centered group; small vertical translation approximates the original path's vertical center -->
  <g class="signage-logo" fill="#000000" transform="translate(0,19.35)">
    <path d="M-12.27 -2.43C-10.55 -0.85 -7.91 -0.06 -4.35 -0.06L4.29 -0.06C8.01 -0.06 10.73 -0.92 12.45 -2.64C14.17 -4.36 15.03 -7.06 15.03 -10.74C15.03 -14.42 14.17 -17.12 12.45 -18.84C10.73 -20.56 8.01 -21.42 4.29 -21.42L-3.93 -21.42C-6.57 -21.42 -8.41 -21.94 -9.45 -22.98C-10.49 -24.02 -11.01 -25.86 -11.01 -28.5C-11.01 -31.1 -10.49 -32.92 -9.45 -33.96C-8.41 -35 -6.59 -35.52 -3.99 -35.52L4.47 -35.52C6.95 -35.52 8.72 -35.05 9.78 -34.11C10.84 -33.17 11.39 -31.54 11.43 -29.22C11.47 -28.78 11.63 -28.42 11.91 -28.14C12.19 -27.86 12.55 -27.72 12.99 -27.72C13.47 -27.72 13.86 -27.86 14.16 -28.14C14.46 -28.42 14.59 -28.8 14.55 -29.28C14.43 -32.48 13.56 -34.84 11.94 -36.36C10.32 -37.88 7.83 -38.64 4.47 -38.64L-3.99 -38.64C-7.47 -38.64 -10.03 -37.82 -11.67 -36.18C-13.31 -34.54 -14.13 -31.98 -14.13 -28.5C-14.13 -24.98 -13.31 -22.4 -11.67 -20.76C-10.03 -19.12 -7.45 -18.3 -3.93 -18.3L4.29 -18.3C7.13 -18.3 9.11 -17.75 10.23 -16.65C11.35 -15.55 11.91 -13.58 11.91 -10.74C11.91 -7.9 11.36 -5.93 10.26 -4.83C9.16 -3.73 7.17 -3.18 4.29 -3.18L-4.35 -3.18C-7.07 -3.18 -8.99 -3.68 -10.11 -4.68C-11.23 -5.68 -11.83 -7.46 -11.91 -10.02C-11.95 -10.5 -12.11 -10.88 -12.39 -11.16C-12.67 -11.44 -13.03 -11.58 -13.47 -11.58C-13.95 -11.58 -14.34 -11.43 -14.64 -11.13C-14.94 -10.83 -15.07 -10.44 -15.03 -9.96C-14.91 -6.52 -13.99 -4.01 -12.27 -2.43Z"/>
  </g>
</svg>
